<svg xmlns="http://www.w3.org/2000/svg" version="1.1" xmlns:xlink="http://www.w3.org/1999/xlink" xmlns:svgjs="http://svgjs.dev/svgjs" width="1500" height="1500" viewBox="0 0 1500 1500"><rect width="1500" height="1500" fill="#ffffff"></rect><g transform="matrix(0.6666666666666666,0,0,0.6666666666666666,249.50000000000006,249.50000000000006)"><svg viewBox="0 0 280 280" data-background-color="#ffffff" preserveAspectRatio="xMidYMid meet" height="1500" width="1500" xmlns="http://www.w3.org/2000/svg" xmlns:xlink="http://www.w3.org/1999/xlink"><g id="tight-bounds" transform="matrix(1,0,0,1,0.13999999999998636,0.13999999999998636)"><svg viewBox="0 0 279.72 279.72" height="279.72" width="279.72"><g><svg viewBox="0 0 279.72 279.72" height="279.72" width="279.72"><g><svg viewBox="0 0 279.72 279.72" height="279.72" width="279.72"><g id="textblocktransform"><svg viewBox="0 0 279.72 279.72" height="279.72" width="279.72" id="textblock"><g><svg viewBox="0 0 279.72 279.72" height="279.72" width="279.72"><g transform="matrix(1,0,0,1,74.29949052688531,73.92936372216631)"><svg viewBox="0 0 131.1210189462294 131.8612725556674" height="131.8612725556674" width="131.1210189462294"><g id="icon-0"><svg xmlns="http://www.w3.org/2000/svg" xmlns:xlink="http://www.w3.org/1999/xlink" version="1.1" x="0" y="0" viewBox="3.6643441059790463 3.3374326153122738 93.5490124094041 94.0771504200141" enable-background="new 0 0 100 100" xml:space="preserve" height="131.8612725556674" width="131.1210189462294" class="icon-xg-0" data-fill-palette-color="accent" id="xg-0"><path d="M93.319 16.537c-16.169 18.748-32.342 37.5-48.507 56.246-1.865 2.162 1.482 5.05 3.347 2.887 16.168-18.746 32.338-37.499 48.507-56.246C98.531 17.263 95.182 14.375 93.319 16.537L93.319 16.537z" fill="#000000" data-fill-palette-color="accent"></path><path d="M87.443 4.07C72.492 21.406 57.539 38.744 42.591 56.078c-1.792 2.078 1.43 4.854 3.22 2.776C60.76 41.522 75.714 24.184 90.665 6.848 92.452 4.774 89.233 1.996 87.443 4.07L87.443 4.07z" fill="#000000" data-fill-palette-color="accent"></path><path d="M69.148 6.2C52.981 24.949 36.81 43.7 20.64 62.448c-1.861 2.158 1.484 5.046 3.349 2.886C40.157 46.586 56.327 27.835 72.496 9.087 74.358 6.929 71.012 4.042 69.148 6.2L69.148 6.2z" fill="#000000" data-fill-palette-color="accent"></path><path d="M61.492 90.674c-7.005 8.124-19.313 9.033-27.438 2.027-0.463-0.399-0.833-0.801-1.154-1.182-7.065 4.116-16.149 3.386-22.494-2.086-8.125-7.006-9.034-19.314-2.029-27.437 0.405-0.469 0.831-0.921 1.279-1.348C3.569 53.517 3.495 43.064 9.88 35.658c6.011-6.969 16.194-8.772 24.214-4.287 1.206 0.677 1.639 2.203 0.963 3.411-0.677 1.203-2.206 1.643-3.414 0.966-5.95-3.33-13.505-1.99-17.97 3.187C8.44 45.004 9.06 53.825 15.082 59.02c0.63 0.543 0.951 1.361 0.855 2.192-0.098 0.823-0.598 1.55-1.335 1.933l-0.472 0.245c-0.705 0.561-1.363 1.192-1.957 1.881C6.972 71.3 7.647 80.437 13.68 85.64c5.214 4.496 12.923 4.682 18.33 0.441 0.594-0.469 1.371-0.638 2.105-0.475 0.739 0.172 1.361 0.663 1.694 1.344l0.238 0.487c0.097 0.119 0.188 0.237 0.28 0.354 0.354 0.449 0.637 0.805 0.999 1.117 6.032 5.201 15.165 4.525 20.367-1.504 3.844-4.453 4.607-10.72 1.95-15.968-0.628-1.234-0.134-2.743 1.104-3.368 1.232-0.625 2.742-0.132 3.366 1.102C67.695 76.233 66.665 84.675 61.492 90.674z" fill="#000000" data-fill-palette-color="accent"></path></svg></g></svg></g><g id="text-0"><path d="M22.633 97.677v0l1.366 0.114c0.042 0.948-0.011 2.315-0.16 4.102-0.149 1.786-0.351 3.085-0.606 3.896v0c-0.259 0.824-0.763 1.459-1.512 1.905-0.742 0.448-1.59 0.688-2.542 0.722-0.955 0.04-1.873 0.001-2.756-0.117-0.89-0.12-1.737-0.307-2.541-0.56v0c-4.827-1.518-6.554-4.456-5.184-8.815v0c0.328-1.042 0.949-1.854 1.864-2.435 0.915-0.582 1.903-0.706 2.965-0.372v0c0.58 0.183 1.04 0.505 1.38 0.967 0.342 0.455 0.574 0.952 0.694 1.49 0.116 0.529 0.169 1.18 0.158 1.951-0.004 0.774-0.045 1.446-0.123 2.016-0.071 0.572-0.169 1.251-0.293 2.038-0.118 0.789-0.193 1.338-0.225 1.647v0c0.567 0.157 1.069 0.275 1.508 0.354 0.437 0.087 0.925 0.135 1.465 0.146 0.534 0.008 0.999-0.055 1.397-0.191 0.393-0.144 0.762-0.394 1.106-0.75 0.346-0.362 0.609-0.83 0.789-1.404v0c0.22-0.699 0.425-1.569 0.615-2.611 0.19-1.042 0.341-1.972 0.454-2.791 0.108-0.828 0.169-1.262 0.181-1.302zM13.356 105.541v0c0.074-2.861-0.038-5.258-0.336-7.192v0c-0.681-0.069-1.203-0.034-1.565 0.105-0.363 0.14-0.618 0.443-0.765 0.912v0c-0.369 1.174-0.299 2.366 0.211 3.577 0.51 1.211 1.328 2.077 2.455 2.598z" fill="#000000" data-fill-palette-color="primary"></path><path d="M14.745 90.392v0l-1.666-0.075c-0.27-0.692-0.384-1.471-0.343-2.337 0.041-0.866 0.219-1.659 0.536-2.38v0c1.374-3.126 4.763-3.502 10.167-1.127v0c0.74 0.325 1.814 0.846 3.22 1.562 1.407 0.716 2.471 1.233 3.192 1.55v0c0.509 0.405 0.671 0.819 0.485 1.244v0c-0.147 0.335-0.449 0.565-0.904 0.69-0.458 0.131-0.889 0.108-1.294-0.071v0c-0.127-0.056-0.214-0.105-0.263-0.149v0c0.601 1.638 0.618 3.103 0.051 4.394v0c-0.431 0.981-1.162 1.683-2.193 2.105-1.038 0.42-2.066 0.406-3.085-0.042v0c-1.721-0.756-2.979-2.113-3.772-4.07-0.803-1.953-0.83-3.781-0.082-5.483v0c0.031-0.07 0.069-0.14 0.115-0.21 0.04-0.073 0.091-0.156 0.155-0.249 0.063-0.093 0.108-0.168 0.133-0.225v0c-2.231-0.799-3.691-0.414-4.381 1.155v0c-0.409 0.93-0.432 2.169-0.071 3.718zM25.979 88.409v0c-1.281-0.608-2.253-1.058-2.918-1.35v0c-0.557-0.245-1.344-0.568-2.36-0.969v0l-0.096 0.218c-0.559 1.325-0.596 2.739-0.109 4.244 0.486 1.505 1.416 2.559 2.789 3.162v0c0.589 0.259 1.139 0.285 1.652 0.081 0.513-0.205 0.883-0.567 1.111-1.086v0c0.359-0.816 0.336-2.25-0.069-4.3z" fill="#000000" data-fill-palette-color="primary"></path><path d="M23.744 69.442v0l0.898 0.873c-1.674 1.295-2.783 2.417-3.326 3.364v0c-0.485 0.846-0.696 1.513-0.634 2.003 0.056 0.486 0.498 0.966 1.326 1.441v0c0.666 0.381 1.357 0.455 2.072 0.219 0.713-0.229 1.391-0.613 2.035-1.152 0.65-0.536 1.318-1.069 2.004-1.6 0.683-0.525 1.446-0.869 2.288-1.032 0.833-0.16 1.663-0.003 2.49 0.471v0c1.122 0.643 1.867 1.615 2.236 2.918 0.371 1.312 0.19 2.63-0.545 3.954v0c-0.553 0.966-1.271 1.753-2.154 2.363-0.892 0.612-1.785 0.989-2.679 1.13v0l-0.353-1.219c0.21-0.158 0.53-0.389 0.959-0.693 0.429-0.304 0.723-0.526 0.882-0.665 0.166-0.136 0.379-0.356 0.642-0.66 0.268-0.301 0.513-0.646 0.736-1.036v0c0.471-0.822 0.674-1.601 0.611-2.339-0.069-0.741-0.437-1.302-1.102-1.683v0c-0.438-0.251-0.88-0.341-1.327-0.27-0.447 0.071-0.884 0.25-1.312 0.538-0.426 0.298-0.863 0.637-1.312 1.017-0.452 0.386-0.927 0.756-1.424 1.108-0.491 0.356-1.009 0.649-1.554 0.878-0.536 0.227-1.138 0.312-1.807 0.255-0.663-0.053-1.354-0.286-2.074-0.698v0c-1.056-0.605-1.774-1.395-2.155-2.37-0.387-0.979-0.284-1.987 0.311-3.024v0c0.23-0.402 0.554-0.822 0.972-1.259 0.412-0.441 0.756-0.778 1.033-1.01 0.274-0.241 0.699-0.587 1.275-1.037 0.571-0.454 0.9-0.715 0.988-0.785z" fill="#000000" data-fill-palette-color="primary"></path><path d="M46.645 77.756v0l-1.968 0.888c-0.668-1.513-2.009-4.303-4.023-8.37v0c-2.143 0.465-4.662 0.178-7.557-0.861-2.898-1.034-5.595-2.344-8.091-3.932v0l1.114-1.369c0.452 0.201 1.474 0.676 3.066 1.425 1.592 0.749 2.784 1.284 3.577 1.605 0.788 0.326 1.836 0.649 3.143 0.969 1.311 0.314 2.505 0.453 3.583 0.417v0c-2.707-5.452-5.457-9.196-8.251-11.232v0l-0.276-0.201c0.753-0.752 1.373-1.274 1.861-1.569v0c1.524 1.512 2.975 3.194 4.355 5.045 1.375 1.857 2.662 3.859 3.86 6.006 1.198 2.147 2.175 3.987 2.93 5.522 0.757 1.543 1.649 3.429 2.677 5.657z" fill="#000000" data-fill-palette-color="primary"></path><path d="M44.614 45.888v0l-1.506-0.716c0.02-0.743 0.217-1.505 0.59-2.287 0.373-0.782 0.846-1.444 1.417-1.985v0c2.479-2.348 5.748-1.38 9.808 2.906v0c0.556 0.587 1.343 1.484 2.362 2.689 1.019 1.206 1.799 2.095 2.341 2.667v0c0.312 0.571 0.3 1.015-0.036 1.334v0c-0.266 0.252-0.633 0.347-1.101 0.285-0.473-0.057-0.861-0.246-1.165-0.566v0c-0.095-0.1-0.156-0.18-0.185-0.24v0c-0.081 1.743-0.634 3.1-1.657 4.069v0c-0.778 0.737-1.724 1.1-2.839 1.09-1.119-0.016-2.062-0.427-2.827-1.236v0c-1.293-1.365-1.925-3.103-1.897-5.214 0.018-2.112 0.702-3.807 2.052-5.086v0c0.055-0.052 0.118-0.102 0.187-0.149 0.065-0.052 0.145-0.109 0.239-0.169 0.095-0.061 0.164-0.113 0.21-0.156v0c-1.746-1.602-3.241-1.814-4.486-0.635v0c-0.738 0.699-1.24 1.832-1.507 3.399zM55.737 48.419v0c-0.944-1.057-1.666-1.849-2.165-2.377v0c-0.418-0.442-1.018-1.045-1.8-1.808v0l-0.173 0.164c-1.03 1.004-1.612 2.293-1.747 3.869-0.136 1.576 0.312 2.908 1.344 3.996v0c0.442 0.467 0.939 0.705 1.491 0.716 0.552 0.01 1.034-0.18 1.446-0.57v0c0.647-0.613 1.182-1.943 1.604-3.99z" fill="#000000" data-fill-palette-color="primary"></path><path d="M56.758 36.465v0l7.381 9.471c-0.135 0.312-0.373 0.599-0.714 0.858v0c-0.258 0.197-0.578 0.376-0.959 0.538v0c-0.723-1.048-2.211-3.064-4.466-6.048-2.254-2.984-3.874-5.234-4.859-6.752v0l1.276-0.584 1.092 1.292c0.167-1.546 0.805-2.742 1.915-3.59v0c0.566-0.432 1.045-0.738 1.439-0.917 0.398-0.174 0.873-0.224 1.426-0.15 0.552 0.074 1.108 0.306 1.667 0.697 0.55 0.389 1.253 1.013 2.109 1.872 0.862 0.855 1.809 1.901 2.843 3.139 1.029 1.232 2.294 2.814 3.796 4.745v0c-0.068 0.104-0.24 0.261-0.514 0.472v0c-0.577 0.441-1.082 0.713-1.515 0.818v0c-0.263-0.208-0.621-0.608-1.075-1.201v0c-0.235-0.308-0.662-0.895-1.281-1.762-0.62-0.857-1.109-1.519-1.465-1.986v0c-0.588-0.769-1.131-1.423-1.631-1.963-0.496-0.535-1.034-1.023-1.616-1.467-0.586-0.448-1.151-0.704-1.695-0.766-0.548-0.068-1.056 0.076-1.522 0.433v0c-0.527 0.403-0.908 0.759-1.142 1.067-0.234 0.309-0.369 0.565-0.405 0.767-0.037 0.202-0.065 0.541-0.085 1.017z" fill="#000000" data-fill-palette-color="primary"></path><path d="M71.083 13.795l11.97 20.761-1.603 0.573c-0.209-0.35-0.375-0.606-0.495-0.767v0c-0.564 1.143-1.359 2.022-2.385 2.636v0c-1.577 0.944-3.209 0.999-4.894 0.163-1.687-0.827-3.044-2.097-4.07-3.811v0c-0.529-0.884-0.963-1.756-1.301-2.617-0.338-0.861-0.594-1.799-0.767-2.816-0.17-1.01-0.056-1.964 0.341-2.862 0.391-0.895 1.073-1.633 2.045-2.215v0c0.955-0.572 1.988-0.872 3.098-0.901v0c-0.964-1.92-2.007-3.817-3.129-5.691v0c-0.511-0.854-0.892-1.476-1.142-1.866v0c0.926-0.337 1.703-0.532 2.332-0.587zM79.722 32.767v0l-5.097-8.331c-0.467-0.309-0.997-0.454-1.591-0.438-0.592 0.008-1.139 0.163-1.643 0.465v0c-0.676 0.405-1.123 0.97-1.341 1.696-0.215 0.717-0.209 1.495 0.019 2.333 0.234 0.835 0.498 1.591 0.791 2.27 0.296 0.669 0.651 1.35 1.067 2.044v0c1.765 2.947 3.637 3.828 5.618 2.642v0c0.658-0.394 1.205-0.846 1.641-1.356 0.439-0.505 0.618-0.946 0.536-1.325z" fill="#000000" data-fill-palette-color="primary"></path><path d="M97.176 13.398v0l0.742 1.207c-0.381 0.206-1.021 0.518-1.921 0.937-0.899 0.419-1.563 0.747-1.99 0.985v0c1.792 4.879 3.147 8.399 4.064 10.558v0c0.045 0.823-0.199 1.332-0.731 1.528v0c-0.247 0.091-0.518 0.072-0.815-0.055-0.29-0.129-0.534-0.341-0.731-0.637v0c-0.21-0.571-0.745-2.13-1.608-4.678-0.853-2.544-1.535-4.51-2.044-5.898v0l-2.203 0.709c-0.177-0.362-0.43-0.991-0.759-1.886v0c0.209-0.033 0.59-0.117 1.144-0.255 0.553-0.137 0.928-0.23 1.123-0.279v0c-0.166-0.631-0.454-1.508-0.866-2.631v0c-0.793-2.161-1.158-3.706-1.095-4.635 0.07-0.931 0.787-1.647 2.15-2.148v0c1.46-0.536 2.758-0.7 3.895-0.491v0l0.2 1.086c-0.247 0.091-0.638 0.208-1.174 0.354-0.542 0.148-0.946 0.27-1.212 0.368v0c-0.779 0.286-1.304 0.67-1.576 1.153-0.27 0.489-0.227 1.217 0.128 2.184v0c0.112 0.305 0.236 0.631 0.371 0.979 0.142 0.346 0.23 0.567 0.266 0.664v0c0.257 0.701 0.53 1.473 0.818 2.318v0c0.298-0.11 0.724-0.255 1.276-0.436 0.546-0.178 0.942-0.313 1.188-0.403v0c0.474-0.174 0.927-0.373 1.36-0.598z" fill="#000000" data-fill-palette-color="primary"></path><path d="M101.12 12.376v0l-0.991-1.34c0.367-0.646 0.9-1.226 1.597-1.74 0.697-0.514 1.426-0.876 2.186-1.084v0c3.293-0.904 5.721 1.489 7.284 7.181v0c0.214 0.78 0.487 1.941 0.817 3.485 0.331 1.543 0.601 2.695 0.81 3.455v0c0.007 0.65-0.213 1.037-0.66 1.16v0c-0.353 0.097-0.722 0.008-1.106-0.266-0.39-0.273-0.644-0.622-0.761-1.049v0c-0.037-0.133-0.053-0.233-0.049-0.298v0c-0.893 1.5-2.019 2.436-3.379 2.809v0c-1.033 0.284-2.039 0.159-3.017-0.375-0.98-0.541-1.617-1.348-1.912-2.421v0c-0.498-1.813-0.238-3.644 0.781-5.494 1.01-1.854 2.412-3.028 4.205-3.52v0c0.073-0.02 0.152-0.035 0.235-0.044 0.082-0.015 0.179-0.028 0.291-0.037 0.112-0.009 0.198-0.022 0.258-0.038v0c-0.786-2.236-2.006-3.126-3.658-2.672v0c-0.98 0.269-1.957 1.032-2.931 2.288zM109.742 19.846v0c-0.335-1.377-0.599-2.416-0.792-3.115v0c-0.161-0.587-0.406-1.401-0.735-2.443v0l-0.23 0.063c-1.381 0.401-2.502 1.264-3.364 2.59-0.861 1.326-1.094 2.712-0.696 4.159v0c0.17 0.62 0.497 1.064 0.979 1.333 0.482 0.269 0.997 0.328 1.544 0.178v0c0.86-0.236 1.958-1.158 3.294-2.765z" fill="#000000" data-fill-palette-color="primary"></path><path d="M123.057 6.156v0l-0.112 1.247c-2.061-0.483-3.63-0.637-4.707-0.461v0c-0.962 0.157-1.613 0.414-1.955 0.77-0.342 0.35-0.436 0.996-0.283 1.937v0c0.123 0.757 0.502 1.34 1.136 1.748 0.627 0.409 1.353 0.693 2.177 0.853 0.826 0.167 1.661 0.349 2.506 0.548 0.838 0.2 1.585 0.575 2.242 1.126 0.649 0.545 1.051 1.289 1.204 2.23v0c0.208 1.276-0.077 2.467-0.856 3.575-0.785 1.115-1.922 1.805-3.413 2.069v0c-1.098 0.179-2.162 0.118-3.192-0.184-1.038-0.307-1.893-0.763-2.566-1.367v0l0.723-1.042c0.255 0.063 0.636 0.166 1.143 0.307 0.506 0.142 0.864 0.23 1.073 0.266 0.21 0.043 0.516 0.07 0.917 0.082 0.402 0.018 0.825-0.008 1.268-0.081v0c0.935-0.152 1.668-0.486 2.201-0.999 0.531-0.521 0.735-1.16 0.612-1.918v0c-0.081-0.498-0.29-0.898-0.627-1.2-0.336-0.302-0.752-0.529-1.245-0.679-0.499-0.143-1.038-0.268-1.616-0.378-0.585-0.108-1.171-0.243-1.758-0.406-0.586-0.157-1.14-0.374-1.661-0.654-0.514-0.273-0.96-0.687-1.337-1.242-0.376-0.548-0.631-1.231-0.765-2.05v0c-0.196-1.201-0.035-2.256 0.481-3.167 0.516-0.917 1.364-1.472 2.544-1.665v0c0.457-0.075 0.987-0.087 1.591-0.039 0.602 0.042 1.08 0.097 1.434 0.166 0.36 0.06 0.897 0.172 1.61 0.336 0.712 0.157 1.122 0.248 1.231 0.272z" fill="#000000" data-fill-palette-color="primary"></path><path d="M135.852 5.183v0l0.42 1.347c-0.543 0.073-1.375 0.228-2.497 0.465-1.122 0.238-1.965 0.39-2.528 0.457v0c0.144 0.705 0.26 1.633 0.347 2.784 0.087 1.144 0.168 2.137 0.243 2.977 0.076 0.833 0.213 1.663 0.413 2.49 0.2 0.833 0.551 1.457 1.053 1.871 0.502 0.414 1.156 0.598 1.963 0.552v0c0.6-0.034 1.348-0.219 2.243-0.555v0c0.43 0.73 0.744 1.259 0.943 1.587v0c-1.562 0.657-3.16 1.033-4.796 1.127v0c-0.607 0.035-1.142-0.114-1.604-0.448-0.463-0.34-0.834-0.776-1.114-1.307-0.273-0.531-0.509-1.21-0.709-2.036-0.2-0.833-0.339-1.621-0.416-2.365-0.084-0.743-0.154-1.597-0.21-2.563v0c-0.031-0.531-0.069-1.26-0.115-2.185-0.04-0.932-0.069-1.568-0.089-1.906v0c-0.206 0.033-0.681 0.074-1.426 0.124-0.744 0.057-1.179 0.089-1.303 0.095v0c-0.216-1.345-0.325-2.038-0.327-2.079v0c0.14 0.033 0.373 0.041 0.697 0.023v0c0.186-0.011 0.479-0.045 0.877-0.103 0.406-0.051 0.708-0.082 0.909-0.093v0c0.083-0.005 0.19-0.007 0.321-0.008 0.132 0.006 0.215 0.008 0.25 0.006v0c-0.045-2.227-0.056-4.04-0.033-5.44v0l1.375 0.253c0.049 0.489 0.096 1.009 0.142 1.56 0.039 0.552 0.084 1.165 0.137 1.841 0.046 0.676 0.079 1.197 0.1 1.562v0c0.527 0.011 1.316 0.007 2.367-0.011 1.051-0.019 1.84-0.026 2.367-0.022z" fill="#000000" data-fill-palette-color="primary"></path><path d="M159.876 5.691v0l1.986 0.508c-0.566 1.541-1.454 3.882-2.664 7.023-1.21 3.148-2.166 5.707-2.867 7.678v0c-0.8 0.051-1.491 0.042-2.074-0.028v0c-0.48-0.057-0.929-0.152-1.344-0.286v0c-0.178-1.079-0.458-2.787-0.842-5.122-0.383-2.336-0.702-4.365-0.956-6.087-0.247-1.721-0.462-3.365-0.644-4.932v0l1.968 0.392 2.421 12.985c0.437-0.922 0.909-1.966 1.417-3.131 0.5-1.159 0.914-2.15 1.242-2.974 0.322-0.832 0.743-1.913 1.264-3.243 0.527-1.329 0.892-2.257 1.093-2.783z" fill="#000000" data-fill-palette-color="primary"></path><path d="M165.674 6.598v0l1.32 0.554c-0.149 1.66-0.489 4.244-1.019 7.751-0.537 3.507-0.864 5.682-0.98 6.526v0c-0.292 0.585-0.697 0.829-1.213 0.732v0c-0.36-0.067-0.676-0.278-0.948-0.631-0.273-0.346-0.411-0.735-0.414-1.164v0c0.194-0.808 0.669-2.916 1.427-6.325 0.764-3.401 1.373-5.882 1.827-7.443zM167.092 1.337v0c0.537 0.101 0.941 0.419 1.214 0.955 0.265 0.535 0.343 1.098 0.232 1.689v0c-0.083 0.442-0.251 0.776-0.504 1.002-0.262 0.232-0.572 0.315-0.933 0.248v0c-0.55-0.103-0.942-0.416-1.174-0.938-0.234-0.515-0.293-1.082-0.178-1.7v0c0.081-0.435 0.242-0.767 0.482-0.996 0.234-0.237 0.521-0.324 0.861-0.26z" fill="#000000" data-fill-palette-color="primary"></path><path d="M185.357 3.814l-6.781 22.985-1.52-0.766c0.109-0.393 0.18-0.689 0.214-0.887v0c-1.217 0.38-2.402 0.41-3.554 0.09v0c-1.772-0.491-2.936-1.635-3.492-3.431-0.565-1.792-0.58-3.65-0.047-5.576v0c0.275-0.992 0.608-1.908 0.998-2.746 0.39-0.839 0.894-1.671 1.51-2.498 0.615-0.819 1.384-1.395 2.308-1.727 0.917-0.334 1.922-0.349 3.015-0.046v0c1.072 0.297 2.002 0.838 2.788 1.623v0c0.726-2.022 1.38-4.086 1.964-6.191v0c0.266-0.959 0.454-1.664 0.564-2.114v0c0.883 0.438 1.56 0.866 2.033 1.284zM177.575 23.154v0l2.519-9.437c-0.098-0.551-0.359-1.035-0.781-1.454-0.414-0.423-0.903-0.713-1.469-0.87v0c-0.759-0.21-1.477-0.144-2.153 0.2-0.668 0.339-1.226 0.879-1.677 1.622-0.443 0.745-0.809 1.458-1.098 2.138-0.28 0.675-0.529 1.403-0.745 2.182v0c-0.918 3.31-0.264 5.274 1.961 5.891v0c0.739 0.205 1.444 0.289 2.114 0.252 0.668-0.03 1.111-0.205 1.329-0.524z" fill="#000000" data-fill-palette-color="primary"></path><path d="M194.31 29.179v0l-0.233 1.351c-0.948-0.04-2.306-0.213-4.072-0.516-1.767-0.304-3.043-0.618-3.829-0.943v0c-0.798-0.33-1.387-0.887-1.766-1.672-0.381-0.778-0.547-1.644-0.497-2.596 0.043-0.955 0.162-1.866 0.356-2.736 0.197-0.876 0.457-1.703 0.78-2.482v0c1.933-4.676 5.01-6.141 9.232-4.396v0c1.009 0.417 1.764 1.107 2.264 2.069 0.5 0.962 0.537 1.957 0.112 2.985v0c-0.232 0.562-0.593 0.993-1.083 1.292-0.484 0.301-0.998 0.489-1.545 0.561-0.537 0.07-1.19 0.065-1.958-0.012-0.771-0.072-1.436-0.171-1.997-0.299-0.563-0.121-1.232-0.277-2.005-0.469-0.776-0.186-1.316-0.308-1.621-0.367v0c-0.205 0.551-0.367 1.041-0.485 1.471-0.124 0.427-0.215 0.91-0.272 1.447-0.055 0.531-0.032 1 0.068 1.408 0.11 0.404 0.327 0.793 0.651 1.167 0.331 0.376 0.774 0.679 1.33 0.908v0c0.677 0.28 1.526 0.56 2.547 0.84 1.021 0.28 1.935 0.512 2.742 0.696 0.816 0.18 1.243 0.278 1.281 0.294zM187.284 19.252v0c2.843 0.323 5.241 0.42 7.194 0.293v0c0.128-0.672 0.139-1.195 0.031-1.569-0.107-0.373-0.388-0.654-0.841-0.842v0c-1.137-0.47-2.331-0.504-3.582-0.1-1.251 0.403-2.185 1.142-2.802 2.218z" fill="#000000" data-fill-palette-color="primary"></path><path d="M198.105 27.253v0c0.391-0.708 0.9-1.453 1.529-2.235 0.632-0.788 1.36-1.578 2.184-2.371 0.827-0.783 1.72-1.329 2.679-1.637 0.95-0.305 1.824-0.237 2.623 0.204v0c1.695 0.935 2.634 2.452 2.818 4.55 0.184 2.099-0.241 4.086-1.276 5.963v0c-0.441 0.799-0.963 1.545-1.566 2.238-0.604 0.693-1.291 1.324-2.063 1.893-0.774 0.56-1.635 0.91-2.581 1.051-0.937 0.138-1.87-0.001-2.8-0.419v0c-1.511-1.11-2.383-2.499-2.615-4.167-0.236-1.662 0.12-3.352 1.068-5.07zM206.513 22.679v0c-0.657-0.268-1.49 0.011-2.498 0.836-1.017 0.828-1.862 1.708-2.534 2.64-0.678 0.929-1.227 1.774-1.648 2.537v0c-0.548 0.993-0.748 2.078-0.6 3.256 0.147 1.178 0.602 1.978 1.365 2.399v0c0.551 0.304 1.166 0.363 1.844 0.177 0.676-0.18 1.314-0.515 1.915-1.004 0.604-0.48 1.15-1.004 1.637-1.572 0.484-0.562 0.862-1.091 1.136-1.587v0c0.801-1.453 1.169-2.899 1.104-4.341-0.056-1.444-0.63-2.558-1.721-3.341z" fill="#000000" data-fill-palette-color="primary"></path><path d="M226.305 51.309v0l-0.636 1.214c-0.89-0.329-2.13-0.909-3.718-1.739-1.589-0.831-2.707-1.521-3.355-2.071v0c-0.659-0.559-1.048-1.27-1.169-2.132-0.124-0.858-0.017-1.732 0.321-2.624 0.333-0.895 0.726-1.727 1.178-2.494 0.456-0.773 0.957-1.481 1.503-2.125v0c3.272-3.859 6.651-4.311 10.135-1.356v0c0.833 0.706 1.34 1.594 1.521 2.663 0.181 1.069-0.088 2.028-0.808 2.876v0c-0.393 0.464-0.869 0.763-1.427 0.898-0.553 0.139-1.1 0.159-1.642 0.061-0.533-0.098-1.153-0.302-1.86-0.612-0.712-0.304-1.315-0.603-1.81-0.896-0.499-0.287-1.087-0.641-1.764-1.061-0.681-0.415-1.158-0.697-1.431-0.846v0c-0.364 0.462-0.668 0.879-0.912 1.252-0.249 0.369-0.483 0.8-0.703 1.294-0.215 0.488-0.337 0.942-0.366 1.361-0.02 0.418 0.068 0.855 0.262 1.31 0.2 0.459 0.529 0.883 0.988 1.273v0c0.559 0.474 1.281 1 2.167 1.579 0.886 0.579 1.685 1.08 2.397 1.502 0.721 0.421 1.098 0.645 1.129 0.673zM222.658 39.706v0c2.608 1.178 4.861 2.006 6.759 2.483v0c0.328-0.601 0.498-1.095 0.51-1.484 0.012-0.388-0.169-0.741-0.543-1.059v0c-0.938-0.796-2.065-1.194-3.379-1.193-1.314 0-2.43 0.418-3.347 1.253z" fill="#000000" data-fill-palette-color="primary"></path><path d="M250.43 47.413l-17.712 16.141-0.903-1.443c0.297-0.28 0.511-0.496 0.643-0.648v0c-1.238-0.306-2.267-0.894-3.087-1.764v0c-1.261-1.338-1.663-2.92-1.207-4.745 0.446-1.825 1.396-3.423 2.85-4.793v0c0.75-0.706 1.509-1.317 2.277-1.831 0.768-0.515 1.63-0.966 2.586-1.353 0.95-0.382 1.907-0.476 2.869-0.281 0.958 0.19 1.825 0.698 2.602 1.523v0c0.763 0.81 1.277 1.755 1.543 2.833v0c1.669-1.353 3.298-2.779 4.888-4.276v0c0.725-0.682 1.251-1.187 1.579-1.515v0c0.528 0.832 0.885 1.55 1.072 2.152zM233.751 59.918v0l7.046-6.765c0.201-0.522 0.23-1.071 0.086-1.647-0.134-0.576-0.403-1.078-0.806-1.506v0c-0.54-0.574-1.188-0.889-1.945-0.946-0.746-0.057-1.505 0.116-2.274 0.519-0.765 0.407-1.448 0.827-2.048 1.259-0.59 0.432-1.179 0.926-1.768 1.48v0c-2.501 2.355-2.96 4.373-1.377 6.054v0c0.526 0.559 1.085 0.996 1.678 1.311 0.587 0.321 1.056 0.401 1.408 0.241z" fill="#000000" data-fill-palette-color="primary"></path><path d="M248.165 56.686v0l0.634 1.283c-1.201 1.155-3.152 2.884-5.852 5.185-2.705 2.296-4.378 3.724-5.018 4.285v0c-0.604 0.25-1.07 0.169-1.397-0.243v0c-0.228-0.287-0.328-0.653-0.301-1.097 0.021-0.44 0.171-0.824 0.45-1.151v0c0.676-0.483 2.417-1.763 5.225-3.84 2.807-2.067 4.893-3.541 6.259-4.422zM252.686 53.643v0c0.339 0.428 0.436 0.933 0.29 1.517-0.15 0.578-0.461 1.054-0.932 1.427v0c-0.352 0.279-0.698 0.421-1.038 0.427-0.35 0.004-0.638-0.138-0.867-0.425v0c-0.348-0.439-0.439-0.931-0.272-1.478 0.161-0.542 0.488-1.009 0.981-1.4v0c0.347-0.275 0.686-0.42 1.017-0.436 0.333-0.026 0.606 0.097 0.821 0.368z" fill="#000000" data-fill-palette-color="primary"></path><path d="M256.097 69.647v0l-0.952 1.041c-0.336-0.432-0.89-1.073-1.66-1.922-0.77-0.849-1.327-1.501-1.669-1.954v0c-0.536 0.48-1.279 1.047-2.23 1.702-0.945 0.651-1.761 1.222-2.448 1.711-0.682 0.485-1.329 1.022-1.942 1.611-0.619 0.593-0.981 1.21-1.086 1.852-0.105 0.642 0.066 1.3 0.512 1.974v0c0.332 0.501 0.869 1.054 1.609 1.658v0c-0.414 0.739-0.713 1.277-0.895 1.613v0c-1.355-1.018-2.485-2.209-3.39-3.574v0c-0.336-0.507-0.477-1.044-0.422-1.611 0.061-0.571 0.25-1.111 0.568-1.621 0.321-0.503 0.789-1.05 1.402-1.638 0.619-0.593 1.23-1.11 1.833-1.551 0.599-0.447 1.302-0.938 2.108-1.473v0c0.444-0.294 1.053-0.694 1.829-1.2 0.785-0.504 1.319-0.85 1.602-1.037v0c-0.132-0.161-0.407-0.551-0.826-1.17-0.424-0.615-0.67-0.974-0.739-1.077v0c1.053-0.864 1.596-1.307 1.631-1.33v0c0.042 0.138 0.152 0.343 0.332 0.613v0c0.103 0.156 0.28 0.391 0.53 0.706 0.248 0.325 0.428 0.57 0.539 0.738v0c0.046 0.069 0.102 0.16 0.169 0.273 0.061 0.117 0.101 0.19 0.12 0.219v0c1.901-1.161 3.462-2.084 4.683-2.769v0l0.474 1.316c-0.398 0.288-0.823 0.591-1.276 0.908-0.457 0.311-0.964 0.66-1.521 1.046-0.561 0.38-0.994 0.671-1.299 0.873v0c0.256 0.461 0.657 1.14 1.203 2.039 0.546 0.899 0.95 1.576 1.211 2.034z" fill="#000000" data-fill-palette-color="primary"></path><path d="M259.775 73.944v0l0.434 1.365c-1.361 0.962-3.549 2.377-6.565 4.246-3.019 1.863-4.888 3.024-5.605 3.482v0c-0.635 0.156-1.083 0.007-1.344-0.449v0c-0.182-0.318-0.226-0.695-0.133-1.131 0.087-0.432 0.293-0.789 0.618-1.07v0c0.741-0.376 2.655-1.38 5.743-3.011 3.085-1.622 5.37-2.766 6.852-3.432zM264.702 71.615v0c0.271 0.474 0.291 0.988 0.058 1.543-0.235 0.549-0.614 0.973-1.136 1.272v0c-0.39 0.223-0.753 0.312-1.09 0.265-0.346-0.049-0.611-0.232-0.793-0.55v0c-0.278-0.486-0.294-0.987-0.047-1.502 0.241-0.512 0.634-0.924 1.18-1.236v0c0.384-0.22 0.741-0.313 1.071-0.279 0.333 0.025 0.585 0.187 0.757 0.487z" fill="#000000" data-fill-palette-color="primary"></path><path d="M260.745 83.372v0l-10.823 5.199c-0.276-0.199-0.505-0.492-0.687-0.88v0c-0.138-0.294-0.245-0.645-0.321-1.052v0c1.178-0.483 3.464-1.509 6.859-3.077 3.395-1.568 5.938-2.673 7.63-3.313v0l0.3 1.371-1.495 0.792c1.475 0.492 2.509 1.37 3.101 2.635v0c0.302 0.645 0.499 1.178 0.59 1.601 0.085 0.426 0.033 0.901-0.157 1.424-0.19 0.524-0.534 1.018-1.035 1.482-0.497 0.454-1.256 1.009-2.277 1.663-1.019 0.661-2.242 1.364-3.672 2.11-1.423 0.743-3.237 1.643-5.444 2.7v0c-0.087-0.089-0.204-0.29-0.351-0.602v0c-0.308-0.657-0.467-1.209-0.478-1.654v0c0.259-0.213 0.726-0.478 1.403-0.795v0c0.35-0.164 1.015-0.457 1.993-0.877 0.969-0.424 1.72-0.76 2.252-1.01v0c0.876-0.411 1.631-0.803 2.266-1.176 0.628-0.371 1.22-0.793 1.776-1.268 0.563-0.477 0.932-0.975 1.109-1.493 0.183-0.521 0.15-1.048-0.099-1.58v0c-0.282-0.601-0.549-1.048-0.801-1.342-0.252-0.294-0.473-0.48-0.663-0.559-0.19-0.079-0.515-0.178-0.976-0.299z" fill="#000000" data-fill-palette-color="primary"></path><path d="M272.072 102.622v0l0.724 1.2c-0.57 0.193-1.016 0.352-1.338 0.475v0c-4.156 1.54-6.866 2.524-8.13 2.953v0c-0.439 0.149-1.123 0.391-2.052 0.729-0.929 0.337-1.636 0.588-2.121 0.751v0c-1.047 0.355-1.965 0.63-2.753 0.824-0.79 0.188-1.643 0.309-2.559 0.364-0.909 0.053-1.692-0.029-2.348-0.244-0.663-0.213-1.286-0.619-1.869-1.217-0.591-0.602-1.052-1.391-1.382-2.366v0c-0.286-0.844-0.666-2.373-1.139-4.585v0c0.205-0.084 0.423-0.195 0.655-0.331 0.233-0.13 0.419-0.219 0.556-0.265v0c0.288-0.098 0.527-0.146 0.717-0.145v0c0.031 0.157 0.155 0.78 0.37 1.867 0.224 1.092 0.421 1.886 0.589 2.384v0c0.448 1.322 1.195 2.201 2.24 2.635 1.045 0.434 2.67 0.288 4.876-0.438v0c-0.854-0.754-1.456-1.648-1.807-2.683v0c-0.293-0.864-0.372-1.68-0.238-2.448 0.132-0.774 0.408-1.445 0.829-2.011 0.412-0.57 0.965-1.104 1.657-1.601 0.697-0.506 1.394-0.925 2.092-1.257 0.698-0.331 1.459-0.637 2.284-0.917v0c2.069-0.701 3.954-0.833 5.657-0.395 1.709 0.435 2.878 1.579 3.506 3.431v0c0.371 1.093 0.397 2.281 0.081 3.564v0c0.203-0.047 0.504-0.138 0.903-0.274zM259.927 106.356v0l9.299-3.054c0.307-0.235 0.46-0.689 0.459-1.36-0.008-0.669-0.135-1.367-0.381-2.093v0c-0.351-1.034-1.095-1.68-2.233-1.936-1.144-0.254-2.398-0.151-3.759 0.311v0c-0.707 0.24-1.388 0.514-2.042 0.823-0.654 0.309-1.348 0.716-2.082 1.221-0.734 0.504-1.262 1.099-1.585 1.785-0.322 0.686-0.353 1.412-0.093 2.177v0c0.195 0.576 0.511 1.056 0.948 1.442 0.443 0.382 0.933 0.611 1.469 0.684z" fill="#000000" data-fill-palette-color="primary"></path><path d="M0.233 142.896c0-5.035 4.082-9.117 9.117-9.117 5.035 0 9.117 4.082 9.117 9.117 0 5.035-4.082 9.117-9.117 9.117-5.035 0-9.117-4.082-9.117-9.117z" fill="#000000" data-fill-palette-color="primary"></path><path d="M261.253 142.896c0-5.035 4.082-9.117 9.117-9.117 5.035 0 9.117 4.082 9.117 9.117 0 5.035-4.082 9.117-9.117 9.117-5.035 0-9.117-4.082-9.117-9.117z" fill="#000000" data-fill-palette-color="primary"></path></g><g id="text-1"><path d="M10.8 192.355v0l-1.315 0.756c-0.26-0.817-0.768-2.287-1.524-4.411-0.756-2.124-1.289-3.67-1.597-4.638v0c-0.493-1.548-0.757-2.628-0.793-3.241v0c2.37-0.53 6.269-1.634 11.698-3.312 5.42-1.683 9.237-2.75 11.45-3.201v0c0.161 0.732 0.711 2.643 1.651 5.731 0.938 3.082 1.482 5.121 1.633 6.117v0l-1.302 0.796c-0.467-0.896-1.27-2.722-2.409-5.479-1.13-2.752-1.73-4.201-1.798-4.346v0c-0.472 0.179-1.441 0.542-2.906 1.09-1.465 0.547-2.679 0.984-3.641 1.312v0c0.148 0.736 0.443 2.075 0.887 4.015 0.442 1.934 0.724 3.161 0.846 3.681v0l-1.352 0.778c-1.805-4.3-2.838-6.825-3.098-7.576v0c-0.929 0.296-2.337 0.726-4.225 1.291-1.879 0.569-3.26 0.995-4.142 1.276v0c1.088 4.942 1.734 8.062 1.937 9.361z" fill="#000000" data-fill-palette-color="secondary"></path><path d="M51.576 216.269l-21.439 14.849-0.762-1.686c0.359-0.258 0.621-0.462 0.784-0.613v0c-1.283-0.509-2.304-1.291-3.06-2.347v0c-1.168-1.629-1.38-3.395-0.636-5.299 0.749-1.898 2.008-3.481 3.777-4.749v0c0.916-0.657 1.821-1.208 2.718-1.655 0.9-0.441 1.896-0.802 2.987-1.083 1.086-0.277 2.132-0.241 3.14 0.108 1.007 0.349 1.87 1.024 2.586 2.024v0c0.705 0.983 1.124 2.077 1.257 3.283v0c1.999-1.221 3.962-2.522 5.889-3.904v0c0.876-0.628 1.516-1.1 1.92-1.414v0c0.453 0.976 0.733 1.805 0.839 2.486zM31.778 227.339v0l8.576-6.277c0.296-0.536 0.411-1.124 0.343-1.764-0.068-0.64-0.289-1.222-0.664-1.744v0c-0.499-0.697-1.149-1.128-1.949-1.294-0.798-0.176-1.641-0.099-2.527 0.23-0.891 0.324-1.687 0.678-2.389 1.062-0.706 0.379-1.416 0.824-2.13 1.336v0c-3.039 2.179-3.827 4.288-2.365 6.327v0c0.487 0.68 1.027 1.237 1.619 1.671 0.594 0.425 1.089 0.576 1.486 0.453z" fill="#000000" data-fill-palette-color="secondary"></path><path d="M66.136 241.435v0l1.01 1.172c-0.948 1.545-2.539 3.896-4.772 7.051-2.233 3.156-3.613 5.115-4.141 5.878v0c-0.569 0.418-1.08 0.456-1.531 0.113v0c-0.319-0.243-0.526-0.599-0.619-1.07-0.099-0.475-0.042-0.922 0.172-1.34v0c0.577-0.69 2.067-2.509 4.472-5.457 2.4-2.942 4.203-5.058 5.409-6.347zM70.074 237.006v0c0.473 0.36 0.712 0.862 0.717 1.508 0.006 0.655-0.192 1.247-0.594 1.775v0c-0.293 0.385-0.623 0.625-0.99 0.72-0.361 0.099-0.699 0.029-1.012-0.21v0c-0.495-0.376-0.731-0.872-0.706-1.487 0.034-0.616 0.256-1.194 0.666-1.734v0c0.293-0.385 0.612-0.633 0.956-0.744 0.345-0.111 0.666-0.054 0.963 0.172z" fill="#000000" data-fill-palette-color="secondary"></path><path d="M101.428 260.905v0l-0.169 1.517c-0.575-0.159-1.475-0.364-2.701-0.614-1.219-0.248-2.125-0.458-2.717-0.631v0c-0.162 0.765-0.449 1.738-0.86 2.92-0.413 1.188-0.76 2.217-1.041 3.086-0.281 0.869-0.501 1.76-0.659 2.674-0.158 0.914-0.08 1.686 0.233 2.316 0.32 0.633 0.896 1.101 1.727 1.405v0c0.617 0.226 1.441 0.366 2.474 0.42v0c0.118 0.904 0.205 1.57 0.263 1.996v0c-1.847-0.021-3.608-0.339-5.283-0.952v0c-0.617-0.226-1.083-0.61-1.399-1.153-0.319-0.536-0.503-1.13-0.551-1.781-0.042-0.649 0.016-1.43 0.173-2.344 0.158-0.914 0.358-1.761 0.6-2.541 0.242-0.78 0.544-1.667 0.908-2.659v0c0.195-0.532 0.47-1.274 0.826-2.226 0.36-0.943 0.604-1.59 0.732-1.94v0c-0.215-0.057-0.706-0.222-1.474-0.496-0.771-0.268-1.218-0.424-1.341-0.469v0c0.364-1.435 0.554-2.175 0.57-2.22v0c0.126 0.098 0.355 0.207 0.686 0.328v0c0.188 0.069 0.496 0.163 0.923 0.283 0.421 0.117 0.735 0.214 0.943 0.29v0c0.084 0.031 0.192 0.078 0.324 0.141 0.127 0.054 0.214 0.089 0.259 0.106v0c0.91-2.243 1.678-4.06 2.305-5.45v0l1.268 0.851c-0.157 0.509-0.336 1.047-0.537 1.614-0.196 0.576-0.418 1.212-0.666 1.909-0.239 0.693-0.427 1.227-0.565 1.604v0c0.524 0.236 1.315 0.57 2.372 1.001 1.061 0.44 1.853 0.778 2.378 1.015z" fill="#000000" data-fill-palette-color="secondary"></path><path d="M181.808 275.092v0l0.687 1.353c-0.829 0.218-2.324 0.649-4.484 1.295-2.16 0.646-3.732 1.098-4.714 1.356v0c-1.571 0.412-2.663 0.621-3.277 0.624v0c-0.407-2.394-1.309-6.345-2.705-11.853-1.401-5.499-2.269-9.366-2.606-11.601v0c0.74-0.123 2.676-0.574 5.809-1.353 3.126-0.778 5.191-1.216 6.193-1.315v0l0.728 1.342c-0.919 0.42-2.784 1.128-5.596 2.123-2.807 0.987-4.284 1.511-4.433 1.571v0c0.155 0.481 0.467 1.467 0.938 2.959 0.47 1.492 0.844 2.726 1.122 3.704v0c0.743-0.109 2.095-0.336 4.056-0.679 1.954-0.342 3.194-0.56 3.72-0.655v0l0.708 1.39c-4.387 1.581-6.963 2.482-7.727 2.703v0c0.247 0.943 0.605 2.371 1.072 4.286 0.472 1.906 0.825 3.306 1.06 4.202v0c4.991-0.832 8.141-1.315 9.449-1.451z" fill="#000000" data-fill-palette-color="secondary"></path><path d="M206.328 249.62v0l-1.487-1.041c0.161-0.795 0.516-1.579 1.065-2.35 0.544-0.768 1.173-1.389 1.887-1.863v0c3.098-2.057 6.423-0.412 9.975 4.937v0c0.489 0.737 1.168 1.846 2.036 3.328 0.868 1.481 1.541 2.582 2.019 3.302v0c0.225 0.664 0.127 1.135-0.293 1.414v0c-0.328 0.218-0.739 0.255-1.234 0.11-0.494-0.145-0.875-0.418-1.143-0.821v0c-0.088-0.132-0.141-0.23-0.158-0.294v0c-0.404 1.853-1.248 3.206-2.532 4.059v0c-0.973 0.646-2.058 0.856-3.253 0.63-1.186-0.224-2.114-0.84-2.783-1.848v0c-1.136-1.71-1.494-3.692-1.074-5.946 0.41-2.256 1.459-3.944 3.146-5.064v0c0.075-0.05 0.152-0.097 0.23-0.141 0.077-0.034 0.173-0.077 0.288-0.129 0.109-0.048 0.193-0.091 0.251-0.129v0c-1.567-2.046-3.13-2.551-4.691-1.515v0c-0.915 0.608-1.665 1.728-2.249 3.361zM217.794 254.402v0c-0.818-1.307-1.445-2.289-1.882-2.945v0c-0.367-0.553-0.897-1.313-1.589-2.281v0l-0.224 0.15c-1.29 0.882-2.153 2.156-2.589 3.823-0.44 1.661-0.209 3.171 0.694 4.53v0c0.39 0.587 0.878 0.935 1.464 1.043 0.59 0.114 1.142 0.001 1.654-0.339v0c0.806-0.535 1.63-1.862 2.472-3.981z" fill="#000000" data-fill-palette-color="secondary"></path><path d="M240.68 214.999v0l0.842 1.077c-2.011 1.14-3.38 2.177-4.106 3.109v0c-0.65 0.834-0.979 1.52-0.986 2.058-0.013 0.533 0.387 1.117 1.199 1.75v0c0.66 0.514 1.392 0.704 2.198 0.57 0.81-0.14 1.604-0.45 2.382-0.93 0.778-0.48 1.576-0.954 2.395-1.42 0.824-0.462 1.699-0.713 2.625-0.754 0.93-0.046 1.801 0.247 2.613 0.881v0c1.112 0.867 1.766 2.034 1.963 3.502 0.197 1.468-0.203 2.857-1.198 4.167v0c-0.748 0.959-1.644 1.698-2.687 2.217-1.054 0.52-2.072 0.786-3.056 0.799v0l-0.19-1.357c0.243-0.143 0.62-0.345 1.129-0.606 0.51-0.26 0.865-0.452 1.066-0.575 0.196-0.128 0.461-0.333 0.796-0.616 0.329-0.287 0.642-0.621 0.94-1.002v0c0.633-0.812 0.971-1.622 1.013-2.431 0.044-0.798-0.264-1.455-0.923-1.969v0c-0.436-0.34-0.9-0.509-1.393-0.507-0.491 0.012-0.99 0.14-1.496 0.385-0.501 0.249-1.023 0.548-1.566 0.896-0.544 0.338-1.112 0.662-1.704 0.972-0.588 0.304-1.192 0.539-1.811 0.704-0.61 0.164-1.27 0.162-1.981-0.006-0.709-0.158-1.421-0.516-2.135-1.073v0c-1.041-0.812-1.695-1.772-1.96-2.882-0.261-1.115 0.008-2.185 0.807-3.21v0c0.31-0.398 0.724-0.799 1.24-1.202 0.515-0.413 0.939-0.727 1.272-0.941 0.333-0.214 0.844-0.521 1.533-0.921 0.685-0.395 1.078-0.624 1.179-0.685z" fill="#000000" data-fill-palette-color="secondary"></path><path d="M270.795 181.331v0l1.476 0.178c0.012 1.03-0.095 2.512-0.319 4.448-0.225 1.935-0.491 3.34-0.799 4.214v0c-0.314 0.893-0.881 1.57-1.701 2.029-0.827 0.457-1.762 0.689-2.805 0.697-1.036 0.01-2.035-0.066-2.996-0.228-0.953-0.166-1.866-0.402-2.74-0.71v0c-5.191-1.823-6.964-5.078-5.318-9.767v0c0.394-1.122 1.099-1.984 2.117-2.587 1.015-0.596 2.093-0.694 3.234-0.292v0c0.62 0.218 1.108 0.579 1.465 1.085 0.361 0.515 0.596 1.066 0.705 1.654 0.109 0.588 0.144 1.3 0.107 2.137-0.037 0.837-0.106 1.564-0.205 2.18-0.106 0.615-0.237 1.353-0.393 2.214-0.16 0.852-0.264 1.442-0.313 1.769v0c0.613 0.193 1.158 0.344 1.632 0.452 0.475 0.108 1.004 0.177 1.588 0.206 0.581 0.035 1.09-0.017 1.527-0.156 0.431-0.142 0.84-0.401 1.229-0.778 0.389-0.376 0.693-0.878 0.912-1.503v0c0.261-0.743 0.513-1.681 0.756-2.812 0.247-1.122 0.444-2.13 0.589-3.024 0.152-0.892 0.236-1.36 0.252-1.406zM260.424 189.558v0c0.183-3.108 0.144-5.722-0.115-7.842v0c-0.735-0.097-1.303-0.076-1.703 0.061-0.4 0.138-0.688 0.458-0.864 0.961v0c-0.444 1.265-0.41 2.566 0.102 3.903 0.514 1.331 1.375 2.303 2.58 2.917z" fill="#000000" data-fill-palette-color="secondary"></path></g></svg></g></svg></g></svg></g></svg></g><defs></defs></svg><rect width="279.72" height="279.72" fill="none" stroke="none" visibility="hidden"></rect></g></svg></g></svg>